
<!--
  Copyright (c) Richard Davenport 2024. All rights reserved.
-->
<svg viewBox="0 0 732 916" fill="none" xmlns="http://www.w3.org/2000/svg" class="me">
  <style>
    .me {
      position: relative;
      width: 100%;
      height: auto;
    }

    @keyframes me-avatar-eyes {

      0%,
      89% {
        transform: scaleY(1);
      }

      89.5%,
      90% {
        transform: scaleY(0.45);
      }

      91%,
      100% {
        transform: scaleY(1);
      }
    }

    .me__eyes {
      --me-eyes-animation-play-state: playing;
      transform-origin: center;
      animation-name: me-avatar-eyes;
      animation-duration: 10s;
      animation-iteration-count: infinite;
      animation-fill-mode: both;
      animation-play-state: var(--me-eyes-animation-play-state);
    }

    .me__glasses,
    .me__deal-with-it {
      transition: 1.25s ease-in-out;
      transition-property: transform, opacity;
    }

    .me__glasses {
      transform: translateY(0%);
    }

    .me__deal-with-it {
      transform: translateY(-100%);
    }

    a:has(.me):hover .me__eyes {
      --me-eyes-animation-play-state: paused;
    }

    a:has(.me):focus .me__deal-with-it,
    a:has(.me):hover .me__deal-with-it,
    .me:focus .me__deal-with-it,
    .me:hover .me__deal-with-it {
      transform: translateY(0%);
    }

    a:has(.me):focus .me__glasses,
    a:has(.me):hover .me__glasses,
    .me:focus .me__glasses,
    .me:hover .me__glasses {
      transform: translateY(100%);
    }
  </style>

  <path fill="#021516"
    d="M349 1v32.147h16.212C391 33.147 497 33 518.452 33c0 10 .989 21.83.989 32.174h78.103c1.146 2.32.985 3.424.989 6.005v8.007c-.009 5.679-.277 11.38-.989 17.014h2.966c3.719-.09 7.154.048 10.875 0 1.609-.025 3.334.043 4.943 0 2.314-.057 4.607.017 6.921 0h1.977c2.038-.002 2.51-.569 5.932 0 3.208 3.521 3.032 7.354 2.966 12.01v3.002c-.024 1.247.026 2.72 0 4.003v4.004c-.036 3.12.061 5.888 0 9.007 3.251 1.097 5.48 1.058 8.898 1.001h3.954c2.495-.035 4.427.043 6.921 0h6.92c2.739.211 2.967.001 5.932 2.002.336 2.891.047 3.354 0 7.005v4.004c-.024 1.38.026 2.621 0 4.003-.015 1.389.012 2.615 0 4.003-.035 3.406.061 6.603 0 10.009h2.966c3.4.078 6.486.908 9.887 1 1.472.039 3.47-.031 4.943 0 2.115.045 3.817-.061 5.932 0h3.954c3.038.32 2.967.001 4.944 2.002.224 2.982.031 3.227 0 7.006V194l31.625.281v32.026c-14.642.437-13.175.87-17.784 1.001H705.307c-3.094.077-3.002-.128-5.932 1.001l-20.374 124.603-14 29.525v361.299h-20.002c-3.849.108-8.015-.098-11.864 0v2.001c.05 3.093-.028 6.915 0 10.009.022 1.995-.038 4.009 0 6.005v7.005c-.337 2.913.062 3.121-.988 5.004-2.93 1.711-5.614 1.076-8.898 1.001h-1.978c-2.225-.02-4.695.042-6.92 0-1.509-.015-3.433.012-4.943 0-3.701-.031-7.175.057-10.875 0v14.012h-35.592v32.026h-79.936v32.027h31.999v32.026h47.937v32.027H145.732c-.062-11.37 0-19.684 0-31.026 22.78 0 45.492-.078 68.217 0v-33.027c7.766-.655 14.989-1.073 22.739-1.001h2.965c2.267.012 4.654-.021 6.921 0 1.331-2.695 1.021-4.993.989-8.007v-17.014c.097-2.697 0-3.003.988-6.005 3.888-.93 7.875-1.018 11.864-1h10.875c3.199.012 6.688-.021 9.887 0v-4.004c-.554-4.495-1.019-8.486-.989-13.01v-2.002c.005-2.558-.012-5.449 0-8.007.011-6.002-.03-12.012 0-18.015h-1.977c-6.631.02-13.143-.01-19.773 0-3.408.005-7.467-.011-10.875 0-3.926.013-6.95-.005-10.875 0h-3.955c-5.936 0-11.938.023-17.796-1.001-1.838-1.86-.913-5.513-.988-8.006v-8.007l-.989-14.011-32.625-1.001c-.795-4.024-1.009-6.972-.989-11.009v-11.009c.012-3.002-.021-6.008 0-9.008h-2.966c-3.608.054-7.266-.029-10.875 0-1.562.015-3.382-.026-4.943 0-2.246.037-3.687-.013-5.932 0h-2.966c-4.819.002-4.76.503-6.921-1.001-1.824-2.591-1.008-4.841-.988-8.006v-11.009c.011-3.469-.034-7.541 0-11.01.029-3.541-.015-6.467 0-10.008.029-6.945-.057-14.072 0-21.017l-36.58-1.001c-.732-3.697-1.011-6.344-.989-10.008v-16.014l-35.591-1V591.61H35.992c-.89-3.608-.988-6.332-.989-10.009v-12.01c-.004-3.848-.002-7.161 0-11.009.003-4.024 0-7.986 0-12.01-.002-6.752-.005-14.263 0-21.017.005-7.818.005-15.2 0-23.019-.005-6.707-.002-13.31 0-20.016.002-4.009.003-8.002 0-12.01-.002-3.766-.005-8.246 0-12.01 0-1.386.002-2.618 0-4.004-.002-1.882-.004-3.12 0-5.004v-4.003c.125-2.361 0-2.002.99-3.003 4.585-.823 9.188-1.022 13.84-1h11.864c3.166.012 5.73-.019 8.898 0l-.989-27.023-33.614-1.001c-.737-25.062-1.007-49.992-.989-75.062.002-4.537.002-9.475 0-14.011-.002-7.579-.005-14.439 0-22.019.005-8.718.005-17.302 0-26.021-.005-7.571-.002-15.447 0-23.019.002-4.486.003-9.525 0-14.012-.002-4.198-.005-7.811 0-12.01 0-1.526.002-3.477 0-5.004-.002-2.105-.005-3.9 0-6.005v-4.003c.18-6.087.56-11.942.99-18.015h34.602l-.989-32.027 20.762-1.001.988-31.025 13.841-1.001c.775-7.213 1.686-13.77 1.978-21.017V97.2l36.58-1 .988-31.026H157.596c7.509-.36 15.222-1.052 22.739-1V61.17c-.227-5.947-4.544-23.425 0-28.024 33.549-1.636 67.256-1.08 100.842-1v-3.003c-.017-3.253.009-6.756 0-10.008-.005-1.45.008-2.555 0-4.003-.012-2.079.003-3.927 0-6.005V1H349Z" />
  <path fill="#543332"
    d="M180.334 97.2h34.603v33.028h33.614v32.026h-33.614v32.027h-34.603v32.026h34.603v32.027h34.603v-32.027h32.625v-32.026H249.54v-32.027h15.818l.989 10.009 5.932 1-.989 5.005 4.943-1.001v2.001h1.978c1.977 3.003 1.977 3.003 1.977 7.006h2.966v9.008h9.886l1.978 4.003 1.977 1.001v3.002h2.966v2.002h1.977v3.002h2.966v4.004h2.966v3.002h2.966v3.003h3.955c1.131 4.1 1.016 7.78.988 12.01v3.002c-.005 2.529.012 4.477 0 7.006-.006 1.717.004 3.287 0 5.004-.01 4.205.019 8.806 0 13.011h32.626v-32.027h33.614v-31.025h11.863l.989 4.003h2.966l.989 4.003h2.966v4.004h3.954v2.001h1.977v4.004l3.955 1-.989 2.002h1.978v2.002h2.966v-24.02h34.602v-32.027h34.603v32.027h11.864v4.003h3.954v5.004h3.955v2.002l.989 2.002 2.965 1v3.003h2.966v3.002h1.978v2.002h2.966v3.003h2.966v7.005h26.693v31.026h-29.659v32.027h47.455v-31.026h68.216v-61.051c8.898 3.003 8.898 3.003 10.876 4.004v4.003h2.966v4.003h2.965v2.002h1.978l.988 3.002 2.966 1.001v2.002h1.978l.988 5.004h3.955v4.003h36.58v-32.026H665.76v-32.027h-33.614v-32.026h-34.602V98.201h35.591c1.088 3.3 1.005 5.535.989 9.008v12.01c-.012 3.153.02 5.855 0 9.007 3.251 1.097 5.479 1.058 8.898 1.001h3.954c2.495-.035 4.426.043 6.921 0h6.92c2.74.211 2.966 0 5.932 2.002.336 2.892.047 3.352 0 7.005v3.003c-.024 1.381.026 3.622 0 5.004-.015 1.389.012 2.614 0 4.003-.035 3.407.061 6.602 0 10.009h2.966c3.401.078 6.486-.092 9.887 0 1.473.039 3.47-.031 4.943 0 2.116.045 3.816.939 5.932 1h3.954c3.038.32 2.966 0 4.943 2.002.225 2.984.032 3.226 0 7.006V194.281H731v32.026c-14.645.439-13.174.871-17.784 1.001h-7.91c-3.094.077-3-.129-5.932 1.001l-7.373 151.125h-27.229c.029-10.008-.028-48.04 0-58.048h-32.626V290.36H563.93v8.007l-4.943 1.001-.989 5.004h-3.955v5.004h-5.932v4.003h-2.966v3.003h-4.943l.989 5.004h-24.716V290.36h-32.626c.04 6.123-.049 5.887 0 12.01v5.004c-.112 2.087 0 2.002-.988 5.005l-5.932 1v4.004h-3.955v4.003h-22.739V290.36h-67.228v19.016l-2.966 3.003h-2.966l.989 4.003h-4.943v5.004h-90.956v32.027h-33.614v29.024h-68.217v30.024H146.72v-60.049h33.614v-31.026H146.72V289.36h-31.636v-95.079h31.636v-32.027h33.614V97.2Z" />
  <path fill="#ADACAC"
    d="M313.802 382.437h136.433v29.024h31.637v31.025h9.887c3.283-.008 6.602.006 9.886 0 2.287-.005 4.633.008 6.921 0 3.282-.011 6.603.004 9.886 0h8.898c2.039.12 1.978 0 3.954 1.001v29.024h31.637v-29.024h63.274v88.073h-63.274l-.989 28.023h-3.954l.989-5.004h-3.955v-4.003h-4.943l.988-4.004h-4.943l.989-4.003-1.978-1.001v-3.002h-3.954v-3.003h-2.966v-4.003l-3.955 1.001v-4.004h-3.954v-4.003h-3.955l-.989-7.006h-3.954v-4.003l-3.955 1.001v-5.004l-2.966-1.001v-3.003l-3.954-1v-4.004h-28.671v62.052h-32.625v29.024c-17.51.023-34.889-.011-52.399 0-8.129.005-16.587-.011-24.716 0-7.083.01-13.679-.003-20.761 0-3.753 0-8.112-.007-11.864 0-3.529.007-6.358.002-9.887 0-1.919 0-4.011-.005-5.932 0h-6.92c-2.221-.123-1.978 0-2.966-1.001-.08-2.075-.016-3.929 0-6.005v-22.018h-31.637v57.047h33.614v90.074h-33.614v-32.026H249.54c-.738-19.726-1.086-39.309-.989-59.049h-32.625c-.99-22.061-1.021-43.974-.989-66.055.006-4.977-.002-10.035 0-15.012.003-9.378-.011-18.645 0-28.023.013-12.706-.005-25.327 0-38.032.01-19.951-.018-40.099 0-60.049h98.865v-29.024Z" />
  <path fill="#A27057"
    d="M518.452 34.148c1.017 10.296.989 20.678.989 31.026h78.103c1.146 2.321.984 3.423.988 6.005V84.19c-.178 3.96-.556 8.07-.988 12.01h33.614l.988 2.001h-34.602v32.027h34.602v32.026h33.614v32.027h32.626v32.026h-36.58v-4.003h-3.955v-2.002l-1.977-1.001.989-2.001h-1.978v-2.002l-4.943-1.001.989-3.002h-1.978v-2.002h-2.966v-4.003h-2.966v-2.002c-1.85-3.146-2.345-3.02-9.886-4.003l-.989 59.049H563.93v31.025h-47.455v-32.026h29.659v-31.026h-26.693v-7.006h-2.966v-3.002h-2.966v-2.002h-1.978v-3.002h-2.966v-3.003l-3.954-1v-4.004h-3.955v-5.004h-3.954v-4.003h-11.864v-32.027h-34.603v32.027h-34.602v24.02h-2.966v-2.002h-1.978v-2.002l-2.966-1v-4.004h-1.977v-2.001h-3.954v-4.004h-2.966l-.989-4.003h-2.966l-.989-3.003-11.863-1v31.025h-33.614v32.027h-32.626v-36.03l-1.977-1.001.989-3.002h-3.955v-3.003h-2.966v-3.002h-2.966v-4.004h-2.966v-3.002h-1.977v-2.002h-2.966v-3.002l-2.966-1.001-.989-4.003h-9.886v-9.008h-2.966c-1.977-3.003-1.977-3.002-1.977-7.006h-1.978v-2.001l-4.943 1.001v-4.004l-1.977-1.001-2.966-1c-.989-3.003-.989-3.002-.989-10.009h16.807v-32.026h34.603V97.2H349V65h34.007V33c67.228 0 96.993 1.148 135.445 1.148Z" />
  <path fill="#FEE7C6"
    d="M383.007 290.36h67.228v31.026h22.739v-4.003h3.955v-4.004l5.932-1 .988-22.019h32.626v31.026l23.727-1.001v-4.003h4.943v-3.003h2.966v-4.003h5.932v-5.004h3.955c-.03-1.208.032-.77 0-2.002.062-2.564 0-3.002.988-4.003a97.012 97.012 0 0 1 4.944 0v-8.007h68.216v31.026h32.626v60.05c-22.639.804-44.578 1.066-67.228 1.001-4.079-.01-7.785.005-11.864 0-7.903-.01-15.824.021-23.728 0v29.024h-32.625v31.025h-47.455v-19.581H430.5v-40.468H313.802v29.024h-98.865v-29.024h33.614v-29.024h33.614v-32.027h90.956v-5.004l3.954-1.001v-3.002h2.966l.989-3.003h1.977V290.36Z" />
  <path fill="#533432"
    d="M632.147 591.61h32.854v152.126h-31.866v31.025h-34.602v14.012h-35.592c-3.437 0-36.849.036-42.512 0-7.809-.05-15.919.043-23.727 0-8.888-.05-17.806.055-26.694 0-18.286-.114-36.089.103-54.375 0v-20.017h-66.24v-27.022h134.456v-32.026h34.603v32.026h44.489v-64.053H382.019v-30.025h215.525v31.026h34.603V591.61Z" />
  <path fill="#F29375" d="M71.583 442.486h74.149v31.026h34.602v146.121h-72.171v-29.024h-36.58V442.486Z" />
  <path fill="#F59576"
    d="M215.926 474.513h65.251c.169 13.491-.159 26.542 0 40.033l.988 3.002c.397 33.878.125 68.204 0 102.085h33.614v90.075h-33.614v-32.027H249.54c-.739-19.726-1.086-39.309-.989-59.049h-32.625c-.75-19.05-1.206-37.985-.989-57.047v-8.007c.06-6.573-.071-12.443 0-19.015.084-7.945.914-16.076.989-24.02.115-11.972-.125-24.059 0-36.03Z" />
  <path fill="#EFC39D"
    d="M519.615 33v32l77.929.174c1.147 2.321.984 3.422.988 6.005V84.19c-.178 3.96-.556 8.07-.988 12.01h33.614l.988 2.001h-34.602v32.027h34.602v32.026h-69.205v-32.026H450.235V98.201h34.603V66.175h-69.205V33h103.982Z" />
  <path fill="#553432"
    d="M450.235 162.254h34.603v32.027h11.864v4.003h3.954v5.004h3.955v2.002l.989 2.002 2.965 1v3.003h2.966v3.002h1.978v2.002h2.966v3.003h2.966v7.005h-34.603v32.027h-69.205v31.026h34.602v1h-67.228v-32.026h-34.602v-32.027h33.614v-31.025h11.863l.989 4.003h2.966l.989 4.003h2.966v4.004h3.954v2.001h1.977v4.004l3.955 1-.989 2.002h1.978v2.002h2.966v-24.02h34.602v-32.027Z" />
  <path fill="#A16F57"
    d="M483.849 709.708h34.603v32.026h44.489v47.039H415.633v-20.017h-66.24v-27.022h134.456v-32.026Z" />
  <path fill="#FDFEFD"
    d="M282.165 443.487h32.626v14.012h33.614v74.061h65.25c-.039-19.88.05-20.153 0-40.033v-18.015c.166-5.28.556-10.748.989-16.013h32.625c.248 17.319-.103 17.43 0 25.02.072 5.107.915 9.907.989 15.013.059 4.133-.056 8.876 0 13.011.021 1.549-.023 2.455 0 4.003.224 15.273 0 30.761 0 46.038H314.791v-88.073h-32.626v-29.024Z" />
  <path fill="#021415"
    d="M484.838 226.307h61.296v31.026h-29.659v32.027h47.455v9.007l-4.944 1.001-.988 5.004h-3.955v5.004h-5.932v4.003h-2.966v3.003h-4.943l.989 5.004h-24.716V290.36h-32.626c.04 6.123-.049 5.887 0 12.01v5.004c-.112 2.087 0 2.002-.988 5.005l-5.932 1v4.004h-3.955v4.003h-22.739V289.36h-34.602v-31.026h69.205v-32.027Z" />
  <path fill="#39748A"
    d="M214.937 443.487h67.228v29.024h32.625c.105 29.719-.06 59.368-.988 89.074h-31.637v-88.073h-67.228v-30.025Z" />
  <path fill="#5C3A35"
    d="M597.544 98.201h35.591c1.088 3.3 1.004 5.535.989 9.008v12.01c-.012 3.153.02 5.855 0 9.007 3.251 1.097 5.479 1.058 8.897 1.001h3.955c2.495-.035 4.426.043 6.921 0h6.92c2.74.211 2.966 0 5.932 2.002.336 2.892.047 3.352 0 7.005v3.003c-.024 1.381.026 3.622 0 5.004-.015 1.389.012 2.614 0 4.003-.036 3.407.061 6.602 0 10.009h2.966c3.401.078 6.486-.092 9.886 0 1.474.039 3.471-.031 4.944 0 2.115.045 3.816.939 5.932 1h3.954c3.038.32 2.966.001 4.943 2.002.225 2.984.032 3.226 0 7.006V194l31.626.281v32.026c-14.645.439-13.174.871-17.785 1.001H705.306c-3.094.077-3-.129-5.932 1.001l-.988 23.019h-1.978v-2.002l-2.965-1v-2.002h-1.978v-2.002h-1.977v-2.001l-1.977-1.001c-.618-2.565-.618-2.565-.989-5.004h-3.955v-5.004l-2.966-1.001v-3.003h-16.807v-1.001h35.592v-32.026H665.76v-32.027h-33.614v-32.026h-34.602V98.201Z" />
  <path fill="#583735"
    d="m314.5 32.29.291 32.71H349v32.2h-32.232v33.028h-.989V97.2h-33.614V65.174H249.54V32c2.96 0 31.46.29 64.96.29Z" />
  <path fill="#4E2F2E"
    d="M348.405 258.334h34.602c.068 7.215-.035 14.803 0 22.018.015 2.455-.025 4.55 0 7.006.037 3.524-.012 7.483 0 11.009.015 1.101-.016 1.869 0 3.002v6.005c-.354 2.299-.663 2.189-1.977 4.004-1.641 1.188-.999 1.001-3.955 1.001l.989 4.003h-4.943v5.004h-90.956V289.36h66.24v-31.026Z" />
  <path fill="#533" d="M180.334 321.386h34.603v61.051h-34.603v30.024H146.72v-60.049h33.614v-31.026Z" />
  <path fill="#001213" d="M314.791 382.437h134.456v29.024H314.791v-29.024Z" />
  <path fill="#615A4F" d="M632.147 443.487h33.614v117.097h-32.626l-.988-103.085-3.955-2.002h3.955v-12.01Z" />
  <path fill="#EB806D"
    d="M513.509 561.585h1.977v3.002h3.955v4.004h3.954v4.003h38.557c.815 15.662.989 31.356.989 47.039h-78.103v-30.025h3.954v-2.001h2.966v-5.005h5.932v-5.004h3.955v-5.004h4.943v-4.003h3.955v-4.004h2.966v-3.002Z" />
  <path fill="#A07058"
    d="M349.393 646.655h248.151v1.001H382.019v30.025h180.922v1.001H383.007v63.052h-33.614v-95.079Z" />
  <path fill="#A06F58" d="M562.941 678.682h70.061v31.026h-35.458v32.026h-34.603v-63.052Z" />
  <path fill="#A26F57" d="M450.235 194.281h33.614v63.052h-67.228v-31.026h33.614v-32.026Z" />
  <path fill="#523332"
    d="M214.937 591.61h.989v27.022h32.625c.771 19.729 1.082 39.304.989 59.049h32.625v1.001h-33.614v31.026h-33.614V591.61Z" />
  <path fill="#533331" d="M546.134 226.307h51.41v32.027H563.93v31.026h-47.455v-32.027h29.659v-31.026Z" />
  <path fill="#021315" d="M214.937 321.386h66.239v31.026h-32.625v30.025h-33.614v-61.051Z" />
  <path fill="#F29276" d="M248.551 353.413h33.614v58.048h-67.228v-29.024h33.614v-29.024Z" />
  <path fill="#872936"
    d="M107.175 503.537h38.558v87.072h-6.921v-4.003h-3.955v-3.003h-2.966l-.988-6.005h-4.944v-4.003h-3.954v-5.004l-5.932-2.002v-4.003h-8.898v-59.049Z" />
  <path fill="#EFC39C"
    d="M632.146 162.254h33.615v32.027h32.625v32.026h-36.58v-4.003h-3.955v-2.002l-1.977-1 .989-2.002h-1.978v-2.002l-4.943-1.001.989-3.002h-1.978v-2.002h-2.965v-4.003h-2.966l-.989-2.002c-.942-2.216-.819-2.154-2.966-3.002v-4.004h-1.977v-2.001l-4.944 1.001v-33.028Z" />
  <path fill="#F29072"
    d="M563.93 290.36h68.216v31.026h-90.955l-.989-5.004h4.943v-3.003h2.966v-4.003h5.932v-5.004h3.955v-2.002c.062-2.564 0-3.002.988-4.003a97.012 97.012 0 0 1 4.944 0v-8.007Z" />
  <path fill="#B7DDD8"
    d="M282.165 443.487h32.626v14.012h33.614v74.061h-.989v-31.026h-32.625v-28.023h-32.626v-29.024Z" />
  <path fill="#714F45"
    d="M597.544 96H634v32.226c3.251 1.097 5.603 1.058 9.021 1.001h3.955c2.495-.035 4.426.043 6.921 0h6.92c2.74.211 2.966 0 5.932 2.002.336 2.892.047 3.352 0 7.005v22.019l30.648 1v1.001h-65.251v-32.026h-34.602V96Z" />
  <path fill="#563332" d="M248.551 97.2h67.228v33.028h-67.228V97.2Z" />
  <path fill="#F49376"
    d="M383.007 290.36h67.228v31.026h-77.114v-5.004l3.954-1.001v-3.002h2.966l.989-3.003h1.977V290.36Z" />
  <path fill="#523232" d="M282.165 709.708h67.228v32.026h-67.228v-32.026Z" />
  <path fill="#021516" d="M71 441.423h75v32.03H71v-32.03Z" />
  <path fill="#F19175" d="M282.165 321.386h67.228v21.017l-1.977 1.001-.989 10.009h-64.262v-32.027Z" />
  <path fill="#011315" d="M563.93 258.334h68.216v31.026H563.93v-31.026Z" />
  <path fill="#021314" d="M282.165 290.36h67.228v31.026h-67.228V290.36Z" />
  <path fill="#A87159"
    d="M223.835 588.607h1.977c2.39.006 5.52-.013 7.909 0h15.819v58.048h32.625v31.026H249.54c-.739-19.691-1.086-39.344-.989-59.049h-32.625l-.989-29.024c2.978-1.504 5.634-1.025 8.898-1.001Z" />
  <path fill="#22546C" d="M214.937 443.487h66.239v30.025h-66.239v-30.025Z" />
  <path fill="#F29276" d="M633.002 321.386h32v58.048h-32v-58.048Z" />
  <path fill="#523231" d="M349.393 741.734h67.228v47.039h-.988v-20.016h-66.24v-27.023Z" />
  <path fill="#EF8C74"
    d="M481.872 473.512h48.444v50.041l1.977 1.001v4.004h-1.977v-4.004h-3.955l-.988-7.006h-3.955v-4.003l-3.955 1.001v-5.004l-2.966-1.001v-3.003l-3.954-1v-4.004h-28.671v-27.022Z" />
  <path fill="#A26F58" d="M416.621 741.734h33.615v47.039h-33.615v-47.039Z" />
  <path fill="#533333" d="M450.235 742.735h33.615l.989 46.038h-34.604v-46.038Z" />
  <path fill="#0C1719"
    d="M515.486 258.334h.989v31.026h47.455v9.007l-4.943 1.001-.989 5.004h-3.955v5.004h-5.932v4.003h-2.965v3.003h-4.944l.989 5.004h-24.716V290.36h-32.626v-1h31.637v-31.026Z" />
  <path fill="#553A36" d="M349 33h34v32h-34V33Z" />
  <path fill="#734C42"
    d="M562.941 65.174h34.604c1.137 2.312.984 3.433.988 6.005V84.19c-.187 4.328-.564 8.698-.988 13.01h-34.604V65.174Z" />
  <path fill="#021315" d="M180.334 194.281h34.604v32.026h-34.604v-32.026Z" />
  <path fill="#F49174" d="M483.849 290.36h32.627v31.026h-43.502v-4.003h3.955v-4.004l5.932-1 .988-22.019Z" />
  <path fill="#513130" d="M484.838 709.708h33.615v32.026h-33.615v-32.026Z" />
  <path fill="#5F3A35" d="M214.937 194.281h33.615v32.026h-33.615v-32.026Z" />
  <path fill="#011216" d="M180.334 290.36h34.604v31.026h-34.604V290.36Z" />
  <path fill="#654039" d="M597.544 96h34.603v33.227h-34.603V96Z" />
  <path fill="#A16E57" d="M282.165 678.682h33.615v31.026h-33.615v-31.026Z" />
  <path fill="#011315"
    d="M349.393 258.334h33.614v31.026h-33.614v-31.026ZM282.165 98.201h33.614v31.026h-33.614V98.201Z" />
  <path fill="#875A49" d="M488 33h32v32h-32V33Z" />
  <path fill="#F0C49C" d="M519.441 162.254h29.66v32.027c-3.26 1.097-5.468 1.017-8.898 1.001h-20.762v-33.028Z" />
  <path fill="#407689" d="M632.147 443.487h33.614v29.024h-32.626l-.988-15.012-3.955-2.002h3.955v-12.01Z" />
  <path fill="#C9F3FB" d="M282.165 443.487h32.626v29.024h-32.626v-29.024Z" />
  <path fill="#D3A07C" d="M562.941 619.633h34.604v27.022h-34.604v-27.022Z" />
  <path fill="#F49579" d="M516.475 258.334h28.671v31.026h-28.671v-31.026Z" />
  <path fill="#55312D"
    d="M484.838 195.282h11.864v3.002h3.955v5.004h3.954v2.002l.989 2.002 2.966 1v3.003h2.966v3.002h1.977v2.002h2.966v3.003h2.966v7.005h-34.603v-31.025Z" />
  <path fill="#B8DAD6" d="M414.644 443.487h33.615v88.073h-.989v-74.061h-32.626v-14.012Z" />
  <path fill="#508091" d="M314.791 443.487h33.615v14.012h-33.615v-14.012Z" />
  <path fill="#9B694E"
    d="m702.341 227.308-2.966 1.001-.988 23.019h-1.978v-2.002l-2.966-1v-2.002h-1.977v-2.002h-1.978v-2.001l-1.977-1.001c-.618-2.555-.618-2.576-.989-5.004h-3.954v-5.005l-2.966-1v-3.003h-16.808v-1.001c4.996-.192 9.834.166 14.83 0 1.7-.058 3.245-.934 4.944-1.001 2.444-.093 5.465.078 7.909 0h1.977c3.784-.106 6.686-.176 9.887 2.002Z" />
  <path fill="#426572"
    d="M281.177 443.487h.988v29.024h32.626v19.016h-.988v-17.014h-29.66v86.071h29.66v1.001h-31.638c-.13-10.965.127-22.062 0-33.027-.059-5.095-.927-9.918-.988-15.013-.279-23.307-.09-46.749 0-70.058Z" />
  <path fill="#DA8774"
    d="M523.395 572.594h38.62c0 15.776-.015 30.984-.015 47.039h-46v-2.002h43v-43.035h-35.605v-2.002Z" />
  <path fill="#8A675A"
    d="M631.158 168.259h.989v27.023l4.943-1.001v2.001h1.978l-.989 4.004-4.943-1.001-.989 59.049h-34.603v-1.001h33.614v-89.074Z" />
  <path fill="#F6E0CC"
    d="M481.872 500.534h28.671l.989 5.004-2.966-1v-3.003h-23.728c.094 2.277-.099 4.659 0 7.006.083 2.206.909 4.8.989 7.006.058 1.533-.066 2.47 0 4.003.093 2.203-.077 4.802 0 7.006v2.002c.114 3.695.113 4.831-1.978 8.006v4.003h-1.977v-40.033Z" />
  <path fill="#795547"
    d="M483.849 709.708h.989v32.026h33.614v1.001h-33.614v45.037h-.989v-45.037h-33.614v-1.001h33.614v-32.026Z" />
  <path fill="#CC8C7A" d="M214.937 382.437h33.615v2.001h-31.638v26.022l3.955 1.001h-5.932v-29.024Z" />
  <path fill="#F19A7F"
    d="M563.93 290.36h67.228v29.024h-.989v-28.023h-65.25v8.007l-4.944 1.001-.988 3.002c-.557-1.939-.557-1.939-.989-4.003.989-1.001 1.421-.938 3.955-1.001h1.977v-8.007Z" />
  <path fill="#917261" d="M282.165 130.228h32.626v1.001l-30.648 1v30.025h-1.978v-32.026Z" />
  <path fill="#885C44"
    d="M631.158 168.259h.988v27.023l4.944-1.001v2.001h1.977l-.989 4.004-4.943-1.001-.989 12.01h-.988v-43.036Z" />
  <path fill="#537A89"
    d="M560.964 501.535h.989v58.048h-3.955l.989-2.001c1.184-2.749.947-4.011.988-7.006v-11.009c.06-3.814.944-7.195.989-11.009.038-2.586-.039-5.422 0-8.007.095-6.338-.076-12.678 0-19.016Z" />
  <path fill="#72A5B3" d="M627.203 443.487h4.943v14.012h-4.943v-14.012Z" />
  <path fill="#2A1D15"
    d="M516.475 290.36h.988v2.002c.115 3.646-.121 7.363 0 11.009l.989 4.003V314.38c.032 2.675-.172 2.97.989 5.004l19.773 1.001.989-4.003.988 5.004h-24.716V290.36Z" />
  <path fill="#F3D9BD"
    d="M482.861 519.55c1.635 3.043 2.627 5.536 2.966 9.008v3.002c-.045 2.342-.077 2.002-1.978 5.004v4.003h-1.977c-.026-2.94.015-6.067 0-9.007V524.554c.108-1.994.038-2.001.989-5.004Z" />
  <path fill="#917962"
    d="m698.386 225.307 3.955 2.001-2.966 1.001-.989 23.019h-1.977c-1.138-3.753-1.138-3.753 0-6.005.136-1.352-.053-2.645 0-4.003v-5.004c.069-1.648.91-3.357.988-5.005v-2.001c.191-1.85-.022-2.002.989-4.003Z" />
  <path fill="#2A505F" d="M214.937 443.487h2.966l.989 3.003-1.978 3.002v3.003c0 3.564 0 4.003-1.977 8.006v-17.014Z" />
  <path fill="#EE9C7D" d="M513.509 561.585h1.977v3.003h3.955v4.004h-8.898v-4.004h2.966v-3.003Z" />
  <path fill="#131E20" d="M621.272 528.558h3.954l.989 3.002h-24.717v-1h19.774v-2.002Z" />
  <path fill="#DD937D"
    d="M563.93 290.36h.989v9.008l-4.944 1.001-.988 3.002c-.557-1.939-.557-1.939-.989-4.003.989-1.001 1.421-.938 3.955-1.001h1.977v-8.007Z" />
  <path fill="#F9CDA7" d="M510.543 557.582h2.966v7.006h-2.966v-7.006Z" />
  <path fill="#FEF7E6" d="M513.509 557.582h1.977v2.001h1.977v3.003l2.966 1.001h-3.954v-2.002h-2.966v-4.003Z" />
  <path fill="#E98E74" d="M477.918 315.381h.988v5.005h-4.943v-3.003h3.955v-2.002Z" />
  <path fill="#FEE7C6" d="M626.002 678.682V411.461h7v267.221z" />
  <path fill="#FEE7C6" d="M626.002 560.584V411.461h32v149.123zM279.01 411.461h68.999v194.161H279.01z" />
  <path fill="#F29276" d="M215.011 383.437h66.999v205.17h-66.999z" />
  <path fill="#011416" d="M690.001 321.386h32v63.052h-32v-63.052Z" />
  <path fill="#FEE6C4" fill-rule="evenodd"
    d="M249 411.394h163v.067h219.002v19.952H632v26.086h1.135v103.085H632v31.026h.147v87.072h-34.603v-59.049h-34.603v-.039H562v-56.078l-.048-.051v9.129h-38.557v-4.003h-3.955v-4.004h-3.954v-3.002h-1.977v3.002h-2.966v4.004h-3.955v4.003h-4.943v5.004h-3.955v5.004h-5.932v5.004h-2.966v2.002h-3.954v30.025h-69.206v27.022h-66.239v63.053h-33.614v-90.075h-33.614v-21.017h-3.155v-10.052H249v-177.17ZM412 531.56v-89.074h.006v89.074H412Zm145.998 28.023.055-.28.263.28h-.318Zm4.943 119.099H383.007v63.052h100.842v-32.026h34.603v32.026h44.489v-63.052Z"
    clip-rule="evenodd" />
  <path fill="#533432" d="M633.002 731.726V560.584h32v171.142z" />
  <path fill="#001315" d="M313.009 382.437h136.997v29.024H313.009z" />
  <path fill="#EB806D"
    d="M384 820.787v32.039h66.006v32.027h-66.499v32.026h-33.999v-34.028h-66.499v-32.027h32v-30.037H384Z" />
  <path fill="#F28F74" d="M418.007 852.826h32v32.026h-32zM352 820.787h32v32.026h-32z" />
  <path fill="#A07058" d="M415.007 619.633h147.997v28.023H415.007z" />
  <path fill="#FDE6C4" d="M383.015 884.969h67v-32.031h33V917h-100v-32.031Z" />
  <path fill="#9D6C55" d="M483.005 884.853h79.998v32.026h-79.998z" />
  <path fill="#021516" d="M547.004 884.853h32v32.026h-32z" />
  <path fill="#533432" d="M658.001 565.588V379.434h32v186.154z" />
  <path fill="#F29276" d="M649.002 411.461h16v149.123h-16V411.461Z" />
  <path fill="#001315" d="M530 379.363h136v32.031H530z" />
  <path fill="#011416" d="M633.002 289.359H722v32.026h-88.998z" />
  <path fill="#FCFDF9"
    d="M562.015 572.594h-38.62v-4.003h-3.954v-4.004h-3.955v-3.002h-1.977v-4.003h-2.966v-4.004h-3.955v-4.003h-3.954v-4.003h-3.955v-4.004h-2.966l-.989-5.004-3.954 1.001-.989-7.006h-1.977v2.002h-1.977c-1.107-3.36-1.005-5.469-.989-9.008v-8.006c.014-4.608-.028-9.404 0-14.012h23.728l.988 3.003 4.943 1v3.003l3.955 1.001v4.003h2.966v4.003h3.955l.988 7.006h3.955v4.004h3.954v4.003l3.955-1.001v4.003h2.966v3.003h3.955v3.002l2.965 1.001-.988 3.003 3.954 1v4.004h3.955v4.003h3.955v5.004h3.028v13.011Z" />
  <path fill="#C97566" d="M283 882.846v-32.031h32v32.031z" />

  <!-- HE CANNIT SEE MAN! -->
  <path class="me__eyes" fill="#001315" d="M562 443.425h64v88.085h-64zM345 441.423h72v90.087h-72z" />

  <g class="me__glasses">
    <path fill="#87C2C7" d="M531 442h32v32h-32z" />
    <path fill="#3F7086" d="M531 474h32v87l-32-34v-53Z" />
    <path fill="#22546C" d="M215 442h67v32h-67z" />
    <path fill="#39748A" d="M282 471h32v91h-32z" />
    <path fill="#C9F3FB" d="M282 442h32v32h-32z" />
    <path fill="#B8DAD6" d="M418 442h32v14h-32z" />
    <path fill="#508091" d="M314 442h32v14h-32z" />
    <path fill="#B7DDD8" d="M314 456h32v43h-32z" />
    <path fill="#ACACAC" d="M531 410h32v32h-32zM482 442h49v32h-49zM215 410h267v32H215z" />
    <path fill="#ACACAC"
      d="M531 410h201v32H531zM314 562h136v32H314zM562 560h138v32H562zM450 442h32v120h-32zM700 442h32v118h-32z" />
    <path fill="#615A4F" d="M636 474h32v86h-32z" />
    <path fill="#407689" d="M636 442h32v32h-32z" />
    <path fill="#CDF2FB" d="M668 442h32v32h-32z" />
    <path fill="#B8DDD8" d="M668 471h32v89h-32z" />
    <path fill="#FDFEFD" d="M418 456h32v106h-32zM314 499h32v63h-32z" />
    <path fill="#FDFEFD" d="M314 562v-32h134v32z" />
    <path fill="#FCFDF9" fill-rule="evenodd" d="M636 442h-10v86h-63v32h73V442Z" clip-rule="evenodd" />
  </g>

  <g class="me__deal-with-it">
    <path fill="#fff" d="M260.109 454.634h73.16v29.264h-73.16z" />
    <path fill="#fff" d="M274.742 469.261h102.424v43.896H274.742z" />
    <path fill="#fff" d="M289.376 498.529h87.792v43.896h-87.792zM552.752 454.634h117.056v58.528H552.752z" />
    <path fill="#000"
      d="M26 462.863h45.725v22.862H26v-22.862ZM71.725 440v22.863H208.9v22.862h22.863v22.863h22.862v22.862h22.863v22.862h160.037V531.45h22.863v-22.862h22.862v-22.863h45.725v22.863h22.863v22.862h160.037v-22.862h22.863v-22.863H757.6V440H71.725Zm297.213 91.45h-22.863v-22.862h-22.862v22.862H300.35v-22.862h-22.862v-22.863h-22.863v-22.862h22.863v22.862h22.862v-22.862h22.863v22.862h22.862v22.863h22.863v22.862Zm274.35-22.862h-22.863v-22.863h-22.862v22.863H574.7v-22.863h-22.862v-22.862H574.7v22.862h22.863v-22.862h22.862v22.862h22.863v22.863Z" />
    <path fill="#000" d="M300.35 485.725h22.863v22.862H300.35v-22.862Z" />

  </g>

</svg>
