<svg xmlns="http://www.w3.org/2000/svg" viewBox="0 0 24 24" width="24" height="24">
	<style>
		.target {
			fill: #000;
		}

		@media(prefers-color-scheme: dark) {
			.target {
				fill: #fff;
			}
		}

	</style>

	<path class="target"
		d="M23.2 19.3 19.4 23l-3.8-3.7h2.8v-3.7h1.9v3.7M10.5 11.8c-.1-.6-.5-.8-1-.8-.7 0-1.2.6-1.2 1.6s.4 1.6 1.2 1.6c.3 0 .6-.1.8-.4.1-.1.1-.3.2-.5l1.2.2c-.1.5-.2.8-.5 1.1-.4.4-1 .7-1.7.7s-1.3-.2-1.8-.7c-.4-.5-.7-1.2-.7-2s.3-1.5.7-2c.4-.4 1-.6 1.7-.6.8 0 1.4.3 1.8.8.2.2.3.5.4.8l-1.1.2zM14.4 13.6c0 .2 0 .2.1.4.1-.3.1-.3.1-.4l.9-2.9c.1-.3.1-.4.1-.6H17c-.1.2-.1.3-.3.7l-1.3 3.6c-.1.3-.2.5-.2.6h-1.6c0-.2-.1-.4-.2-.6l-1.3-3.6c-.1-.3-.2-.5-.3-.7h1.4c0 .2.1.4.1.6l1.1 2.9z" />
	<g>
		<path class="target"
			d="M5.6 19.3V4.7h9.1v3.6h3.7v6.9h1.9V7.5l-4.6-4.6h-11c-.5 0-.9.4-.9.9v16.5c0 .5.4.9.9.9H17l-2-1.9H5.6z" />
	</g>
</svg>
